<?xml version="1.0" encoding="UTF-8" standalone="no"?>
<!-- Created with Inkscape (http://www.inkscape.org/) -->

<svg
   xmlns:dc="http://purl.org/dc/elements/1.1/"
   xmlns:cc="http://creativecommons.org/ns#"
   xmlns:rdf="http://www.w3.org/1999/02/22-rdf-syntax-ns#"
   xmlns:svg="http://www.w3.org/2000/svg"
   xmlns="http://www.w3.org/2000/svg"
   xmlns:sodipodi="http://sodipodi.sourceforge.net/DTD/sodipodi-0.dtd"
   xmlns:inkscape="http://www.inkscape.org/namespaces/inkscape"
   width="107.83808mm"
   height="43.510201mm"
   viewBox="0 0 107.83808 43.510201"
   version="1.1"
   id="svg8"
   sodipodi:docname="PROJECT-TRIDENT-blue.svg"
   inkscape:version="0.92.3 (2405546, 2018-03-11)">
  <defs
     id="defs2" />
  <sodipodi:namedview
     id="base"
     pagecolor="#ffffff"
     bordercolor="#666666"
     borderopacity="1.0"
     inkscape:pageopacity="0.0"
     inkscape:pageshadow="2"
     inkscape:zoom="0.35"
     inkscape:cx="694.07471"
     inkscape:cy="-1.7598092"
     inkscape:document-units="mm"
     inkscape:current-layer="layer1"
     showgrid="false"
     height="100mm"
     inkscape:window-width="1366"
     inkscape:window-height="705"
     inkscape:window-x="-8"
     inkscape:window-y="-8"
     inkscape:window-maximized="1"
     fit-margin-top="0"
     fit-margin-left="0"
     fit-margin-right="0"
     fit-margin-bottom="0" />
  <metadata
     id="metadata5">
    <rdf:RDF>
      <cc:Work
         rdf:about="">
        <dc:format>image/svg+xml</dc:format>
        <dc:type
           rdf:resource="http://purl.org/dc/dcmitype/StillImage" />
        <dc:title></dc:title>
      </cc:Work>
    </rdf:RDF>
  </metadata>
  <g
     inkscape:label="Layer 1"
     inkscape:groupmode="layer"
     id="layer1"
     transform="translate(-12.451717,-105.87693)">
    <text
       xml:space="preserve"
       style="font-style:normal;font-variant:normal;font-weight:normal;font-stretch:normal;font-size:25.39999962px;line-height:1.25;font-family:Trident;-inkscape-font-specification:Trident;letter-spacing:0px;word-spacing:0px;fill:#000000;fill-opacity:1;stroke:none;stroke-width:0.26458332"
       x="23.519718"
       y="140.91458"
       id="text4545"><tspan
         sodipodi:role="line"
         id="tspan4543"
         x="23.519718"
         y="164.40958"
         style="stroke-width:0.26458332"></tspan></text>
    <text
       xml:space="preserve"
       style="font-style:normal;font-variant:normal;font-weight:normal;font-stretch:normal;font-size:25.39999962px;line-height:1.25;font-family:Trident;-inkscape-font-specification:Trident;letter-spacing:0px;word-spacing:0px;fill:#000000;fill-opacity:1;stroke:none;stroke-width:0.26458332"
       x="6.4144688"
       y="139.84552"
       id="text4564"><tspan
         sodipodi:role="line"
         id="tspan4562"
         x="6.4144688"
         y="163.34052"
         style="stroke-width:0.26458332"></tspan></text>
    <g
       aria-label="PROJECT
TRIDENT"
       style="font-style:normal;font-variant:normal;font-weight:normal;font-stretch:normal;font-size:25.39999962px;line-height:1;font-family:Trident;-inkscape-font-specification:Trident;text-align:center;letter-spacing:0px;word-spacing:0px;text-anchor:middle;fill:#000000;fill-opacity:1;stroke:none;stroke-width:0.26458332"
       id="text4583">
      <path
         d="m 18.674717,106.02933 h -6.223 v 1.3208 h 6.4008 c 2.5908,0 4.445,1.6002 4.445,4.1148 0,2.4892 -1.8034,4.1148 -4.445,4.1148 h -5.08 v -3.1242 h -1.3208 v 11.3538 h 1.3208 v -6.9088 h 4.9022 c 3.7592,0 5.968999,-2.286 5.968999,-5.4356 0,-3.1496 -2.260599,-5.4356 -5.968999,-5.4356 z"
         style="line-height:1;text-align:center;text-anchor:middle;fill:#1a59c3;fill-opacity:1;stroke-width:0.26458332"
         id="path4616"
         inkscape:connector-curvature="0" />
      <path
         d="m 28.177888,112.43013 h 1.3208 z m 12.7,11.3792 -4.1148,-7.239 c 2.3114,-0.7366 3.6068,-2.667 3.6068,-5.1054 0,-3.1496 -2.1844,-5.4356 -5.8928,-5.4356 h -6.2992 v 1.3208 h 6.4008 c 2.5908,0 4.445,1.6002 4.445,4.1148 0,2.4892 -1.8034,4.1148 -4.445,4.1148 h -5.08 v -3.1496 h -1.3208 v 11.3792 h 1.3462 v -6.9088 h 4.953 c 0.3302,0 0.635,-0.0254 0.9398,-0.0508 l 3.937,6.9596 z"
         style="line-height:1;text-align:center;text-anchor:middle;fill:#1a59c3;fill-opacity:1;stroke-width:0.26458332"
         id="path4618"
         inkscape:connector-curvature="0" />
      <path
         d="m 52.03206,105.87693 c -5.0546,0 -8.636,4.0132 -8.636,9.0424 0,5.0546 3.5814,9.0678 8.636,9.0678 5.054599,0 8.635999,-4.0132 8.635999,-9.0678 0,-5.0292 -3.5814,-9.0424 -8.635999,-9.0424 z m 0,16.7386 c -4.191,0 -7.1628,-3.4798 -7.1628,-7.6962 0,-4.191 2.9718,-7.6708 7.1628,-7.6708 4.190999,0 7.162799,3.4798 7.162799,7.6708 0,4.2164 -2.9718,7.6962 -7.162799,7.6962 z"
         style="line-height:1;text-align:center;text-anchor:middle;fill:#1a59c3;fill-opacity:1;stroke-width:0.26458332"
         id="path4620"
         inkscape:connector-curvature="0" />
      <path
         d="m 69.679503,106.02933 v 12.7 c 0,2.7432 -1.1684,3.9116 -2.8956,3.9116 -1.3208,0 -2.6924,-0.6858 -3.556,-2.1844 l -1.016,1.0922 c 1.3208,1.9812 2.6416,2.4384 4.572,2.4384 2.4384,0 4.2164,-1.5748 4.2164,-5.3848 v -12.573 z"
         style="line-height:1;text-align:center;text-anchor:middle;fill:#1a59c3;fill-opacity:1;stroke-width:0.26458332"
         id="path4622"
         inkscape:connector-curvature="0" />
      <path
         d="m 85.929945,114.25893 h -7.188199 v 1.3208 h 7.188199 z m -9.550399,8.2296 v -6.9088 -1.3208 -6.9088 h 10.337799 v -1.3208 H 75.058746 v 17.78 h 11.810999 v -1.3208 z"
         style="line-height:1;text-align:center;text-anchor:middle;fill:#1a59c3;fill-opacity:1;stroke-width:0.26458332"
         id="path4624"
         inkscape:connector-curvature="0" />
      <path
         d="m 98.565656,122.61553 c -4.191,0 -7.1628,-3.4798 -7.1628,-7.6962 0,-4.191 2.9718,-7.6708 7.1628,-7.6708 2.616204,0 4.800604,1.3462 6.045204,3.4036 l 1.2954,-0.635 c -1.4986,-2.5146 -4.1148,-4.1402 -7.340604,-4.1402 -5.0546,0 -8.636,4.0132 -8.636,9.0424 0,5.0546 3.5814,9.0678 8.636,9.0678 3.225804,0 5.842004,-1.651 7.340604,-4.1402 l -1.2954,-0.635 c -1.2446,2.032 -3.429,3.4036 -6.045204,3.4036 z"
         style="line-height:1;text-align:center;text-anchor:middle;fill:#1a59c3;fill-opacity:1;stroke-width:0.26458332"
         id="path4626"
         inkscape:connector-curvature="0" />
      <path
         d="m 107.4374,106.02933 v 1.3208 h 12.8524 v -1.3208 z m 5.7658,17.78 h 1.3208 v -12.6492 h -1.3208 z"
         style="line-height:1;text-align:center;text-anchor:middle;fill:#1a59c3;fill-opacity:1;stroke-width:0.26458332"
         id="path4628"
         inkscape:connector-curvature="0" />
      <path
         d="m 16.304976,131.42933 v 1.3208 h 12.8524 v -1.3208 z m 5.7658,17.78 h 1.3208 v -12.6492 h -1.3208 z"
         style="line-height:1;text-align:center;text-anchor:middle;fill:#1a59c3;fill-opacity:1;stroke-width:0.26458332"
         id="path4630"
         inkscape:connector-curvature="0" />
      <path
         d="m 31.452107,137.83013 h 1.3208 z m 12.7,11.3792 -4.1148,-7.239 c 2.3114,-0.7366 3.6068,-2.667 3.6068,-5.1054 0,-3.1496 -2.1844,-5.4356 -5.8928,-5.4356 h -6.2992 v 1.3208 h 6.4008 c 2.5908,0 4.445,1.6002 4.445,4.1148 0,2.4892 -1.8034,4.1148 -4.445,4.1148 h -5.08 v -3.1496 h -1.3208 v 11.3792 h 1.3462 v -6.9088 h 4.953 c 0.3302,0 0.635,-0.0254 0.9398,-0.0508 l 3.937,6.9596 z"
         style="line-height:1;text-align:center;text-anchor:middle;fill:#1a59c3;fill-opacity:1;stroke-width:0.26458332"
         id="path4632"
         inkscape:connector-curvature="0" />
      <path
         d="m 47.178279,131.42933 v 17.78 h 1.3208 v -17.78 z"
         style="line-height:1;text-align:center;text-anchor:middle;fill:#1a59c3;fill-opacity:1;stroke-width:0.26458332"
         id="path4634"
         inkscape:connector-curvature="0" />
      <path
         d="m 57.538702,131.42933 h -4.953 v 1.3208 h 5.2832 c 4.6736,0 7.6708,3.048 7.6708,7.5692 0,4.5212 -2.8702,7.5692 -7.6708,7.5692 h -3.9624 l 0.0254,-10.033 h -1.3208 l -0.0254,11.3538 h 4.953 c 6.0198,0 9.4742,-3.556 9.4742,-8.89 0,-5.334 -3.5306,-8.89 -9.4742,-8.89 z"
         style="line-height:1;text-align:center;text-anchor:middle;fill:#1a59c3;fill-opacity:1;stroke-width:0.26458332"
         id="path4636"
         inkscape:connector-curvature="0" />
      <path
         d="m 81.465103,139.65893 h -7.1882 v 1.3208 h 7.1882 z m -9.5504,8.2296 v -6.9088 -1.3208 -6.9088 h 10.3378 v -1.3208 h -11.6586 v 17.78 h 11.811 v -1.3208 z"
         style="line-height:1;text-align:center;text-anchor:middle;fill:#1a59c3;fill-opacity:1;stroke-width:0.26458332"
         id="path4638"
         inkscape:connector-curvature="0" />
      <path
         d="m 98.190213,145.88193 -11.9888,-14.605 -0.2286,0.508 v 17.4244 h 1.3208 v -14.5542 l 12.0142,14.732 0.2032,-0.5334 v -17.4244 h -1.3208 z"
         style="line-height:1;text-align:center;text-anchor:middle;fill:#1a59c3;fill-opacity:1;stroke-width:0.26458332"
         id="path4640"
         inkscape:connector-curvature="0" />
      <path
         d="m 101.83154,131.42933 v 1.3208 h 12.8524 v -1.3208 z m 5.7658,17.78 h 1.3208 v -12.6492 h -1.3208 z"
         style="line-height:1;text-align:center;text-anchor:middle;fill:#1a59c3;fill-opacity:1;stroke-width:0.26458332"
         id="path4642"
         inkscape:connector-curvature="0" />
    </g>
  </g>
</svg>
