<?xml version="1.0" encoding="UTF-8" standalone="no"?>
<svg
   xmlns:dc="http://purl.org/dc/elements/1.1/"
   xmlns:cc="http://creativecommons.org/ns#"
   xmlns:rdf="http://www.w3.org/1999/02/22-rdf-syntax-ns#"
   xmlns:svg="http://www.w3.org/2000/svg"
   xmlns="http://www.w3.org/2000/svg"
   xmlns:sodipodi="http://sodipodi.sourceforge.net/DTD/sodipodi-0.dtd"
   xmlns:inkscape="http://www.inkscape.org/namespaces/inkscape"
   width="300pt"
   height="300pt"
   viewBox="0 0 298.58557 275.14334"
   version="1.1"
   id="svg15"
   sodipodi:docname="icon.svg"
   inkscape:version="0.92.4 (5da689c313, 2019-01-14)">
  <metadata
     id="metadata21">
    <rdf:RDF>
      <cc:Work
         rdf:about="">
        <dc:format>image/svg+xml</dc:format>
        <dc:type
           rdf:resource="http://purl.org/dc/dcmitype/StillImage" />
      </cc:Work>
    </rdf:RDF>
  </metadata>
  <defs
     id="defs19" />
  <sodipodi:namedview
     pagecolor="#ffffff"
     bordercolor="#666666"
     borderopacity="1"
     objecttolerance="10"
     gridtolerance="10"
     guidetolerance="10"
     inkscape:pageopacity="0"
     inkscape:pageshadow="2"
     inkscape:window-width="1394"
     inkscape:window-height="1227"
     id="namedview17"
     showgrid="false"
     inkscape:zoom="1.5733334"
     inkscape:cx="183.45548"
     inkscape:cy="186.97193"
     inkscape:window-x="3983"
     inkscape:window-y="571"
     inkscape:window-maximized="0"
     inkscape:current-layer="svg15" />
  <g
     id="g3734"
     transform="matrix(0.95233051,0,0,1,-87.535111,-299.91466)">
    <g
       id="#b3b3b3ff">
      <path
         style="opacity:1;fill:#b3b3b3"
         inkscape:connector-curvature="0"
         id="path2"
         d="m 164.7,325.73 c 40.83,-26.32 93.98,-31.35 139.52,-15.04 5.54,1.93 10.84,4.46 16.23,6.75 -3.26,3.73 -7.14,6.86 -10.78,10.21 -10.94,10.41 -22.06,20.64 -33.19,30.84 -3.37,2.01 -3.79,7.29 -0.94,9.92 1.05,0.75 2.23,1.31 3.38,1.92 -22.45,26.31 -44.37,53.08 -66.71,79.47 -13.34,-2.31 -26.73,-4.25 -40.09,-6.42 28.76,-29.67 57.31,-59.53 85.98,-89.29 1.39,-1.53 3.37,-2.8 3.79,-4.96 1.07,-3.39 -1.29,-7.26 -4.77,-7.85 -3.33,-0.79 -6.28,1.39 -9.2,2.6 -19.67,8.68 -39.29,17.44 -58.92,26.18 -3.31,1.22 -4.2,5.63 -2.77,8.57 1.01,2.03 3.23,2.84 5.12,3.82 -17.91,13.99 -35.29,28.68 -53.06,42.85 -4.88,4.89 -11.03,8.19 -15.88,13.1 -7.14,5.48 -14.02,11.3 -20.99,17 -2.69,-21.49 -0.16,-43.69 7.93,-63.83 10.78,-27.14 30.71,-50.31 55.35,-65.84 z" />
    </g>
    <g
       id="#1a59c3ff">
      <path
         style="opacity:1;fill:#1a59c3"
         inkscape:connector-curvature="0"
         id="path5"
         d="m 280.06,364.17 c 15.58,-14.4 31.13,-28.84 46.58,-43.38 -6.3,19.99 -13.04,39.84 -19.41,59.81 -1.64,-3.8 -3.28,-7.59 -5.16,-11.27 -17.26,36.25 -34.42,72.54 -51.66,108.8 11.03,14.91 22.05,29.83 32.97,44.82 16.81,-42.64 33.27,-85.43 50.13,-128.05 0.66,22.64 1.13,45.28 1.83,67.91 -2.85,-3.97 -5.74,-7.91 -8.69,-11.8 -10.08,38.92 -19.65,77.97 -29.57,116.92 -0.37,3.02 -4.24,2.62 -6.36,3.7 -17.91,-21.72 -35.36,-43.84 -53.23,-65.6 -6.48,4.34 -13.5,7.93 -19.74,12.59 -9.81,15.33 -19.73,30.61 -29.64,45.87 -9.11,-3.67 -17.75,-8.43 -25.94,-13.85 9.78,-16.2 20.21,-32.02 30.08,-48.14 1.17,-7.38 1.72,-14.87 2.67,-22.28 -30.21,-6.34 -60.42,-12.64 -90.65,-18.85 21.37,-17.31 42.7,-34.68 64.05,-52.02 12.71,-10.43 25.68,-20.56 38.18,-31.24 -4.92,-0.81 -9.83,-1.68 -14.79,-2.18 21.24,-9.68 42.67,-18.94 63.92,-28.62 -32.18,33.39 -64.36,66.79 -96.42,100.3 18.61,2.94 37.2,6.02 55.8,9.05 25.97,-30.96 51.86,-61.99 77.79,-92.99 -4.25,0.03 -8.5,0.26 -12.74,0.5 z" />
    </g>
    <g
       id="#478061ff">
      <path
         style="opacity:1;fill:#478061"
         inkscape:connector-curvature="0"
         id="path8"
         d="m 332.34,324.43 c 23.54,14.46 43.2,35.56 54.78,60.74 15.03,32.02 15.81,70.32 2.08,102.92 -15.27,37.01 -47.66,65.8 -85.21,78.98 8.51,-33.79 17.03,-67.59 25.49,-101.38 2.3,4.65 10.33,5.02 11.89,-0.34 1.01,-6.73 -0.17,-13.59 -0.05,-20.37 -0.58,-13.97 -0.6,-27.96 -1.15,-41.94 -0.18,-3.65 0.38,-7.4 -0.59,-10.97 -1.79,-4.48 -9.03,-5.28 -11.59,-1.13 -15.47,39.62 -31,79.25 -46.43,118.9 -7.51,-10.89 -15.82,-21.22 -23.38,-32.07 l -0.01,-0.67 c 14.5,-30.93 29.37,-61.7 43.86,-92.64 2.44,2.47 6.59,3.26 9.51,1.17 1.57,-1.04 1.94,-2.98 2.45,-4.65 5.84,-18.94 12.42,-37.65 18.35,-56.55 z" />
      <path
         style="opacity:1;fill:#478061"
         inkscape:connector-curvature="0"
         id="path10"
         d="m 103.7,467.61 c 8.18,1.51 16.3,3.33 24.39,5.22 19.98,3.78 39.84,8.21 59.77,12.28 -0.42,4.47 -1.02,8.93 -1.55,13.39 -0.23,2.8 -2.43,4.8 -3.77,7.11 -6.41,10.52 -12.85,21.01 -19.63,31.29 -2.08,3.22 -4.24,6.41 -5.85,9.91 -26.26,-19.12 -46.08,-47.39 -53.36,-79.2 z" />
      <path
         style="opacity:1;fill:#478061"
         inkscape:connector-curvature="0"
         id="path12"
         d="m 224.59,521.57 c 3.79,-2.36 7.52,-4.82 11.42,-6.99 7.94,8.92 14.9,18.66 22.72,27.68 8.21,10.28 16.57,20.45 24.78,30.74 -29.53,6.17 -60.78,4.17 -89.12,-6.25 8.38,-13.64 17.74,-26.65 26.07,-40.32 1.11,-1.82 2.23,-3.76 4.13,-4.86 z" />
    </g>
  </g>
</svg>
