<?xml version="1.0" encoding="UTF-8" ?>
<!DOCTYPE svg PUBLIC "-//W3C//DTD SVG 1.1//EN" "http://www.w3.org/Graphics/SVG/1.1/DTD/svg11.dtd">
<svg width="1302pt" height="900pt" viewBox="0 0 1302 900" version="1.1" xmlns="http://www.w3.org/2000/svg">
<g id="#b3b3b3ff">
<path fill="#b3b3b3" opacity="1.00" d=" M 164.70 325.73 C 205.53 299.41 258.68 294.38 304.22 310.69 C 309.76 312.62 315.06 315.15 320.45 317.44 C 317.19 321.17 313.31 324.30 309.67 327.65 C 298.73 338.06 287.61 348.29 276.48 358.49 C 273.11 360.50 272.69 365.78 275.54 368.41 C 276.59 369.16 277.77 369.72 278.92 370.33 C 256.47 396.64 234.55 423.41 212.21 449.80 C 198.87 447.49 185.48 445.55 172.12 443.38 C 200.88 413.71 229.43 383.85 258.10 354.09 C 259.49 352.56 261.47 351.29 261.89 349.13 C 262.96 345.74 260.60 341.87 257.12 341.28 C 253.79 340.49 250.84 342.67 247.92 343.88 C 228.25 352.56 208.63 361.32 189.00 370.06 C 185.69 371.28 184.80 375.69 186.23 378.63 C 187.24 380.66 189.46 381.47 191.35 382.45 C 173.44 396.44 156.06 411.13 138.29 425.30 C 133.41 430.19 127.26 433.49 122.41 438.40 C 115.27 443.88 108.39 449.70 101.42 455.40 C 98.73 433.91 101.26 411.71 109.35 391.57 C 120.13 364.43 140.06 341.26 164.70 325.73 Z" />
</g>
<g id="#1a59c3ff">
<path fill="#1a59c3" opacity="1.00" d=" M 280.06 364.17 C 295.64 349.77 311.19 335.33 326.64 320.79 C 320.34 340.78 313.60 360.63 307.23 380.60 C 305.59 376.80 303.95 373.01 302.07 369.33 C 284.81 405.58 267.65 441.87 250.41 478.13 C 261.44 493.04 272.46 507.96 283.38 522.95 C 300.19 480.31 316.65 437.52 333.51 394.90 C 334.17 417.54 334.64 440.18 335.34 462.81 C 332.49 458.84 329.60 454.90 326.65 451.01 C 316.57 489.93 307.00 528.98 297.08 567.93 C 296.71 570.95 292.84 570.55 290.72 571.63 C 272.81 549.91 255.36 527.79 237.49 506.03 C 231.01 510.37 223.99 513.96 217.75 518.62 C 207.94 533.95 198.02 549.23 188.11 564.49 C 179.00 560.82 170.36 556.06 162.17 550.64 C 171.95 534.44 182.38 518.62 192.25 502.50 C 193.42 495.12 193.97 487.63 194.92 480.22 C 164.71 473.88 134.50 467.58 104.27 461.37 C 125.64 444.06 146.97 426.69 168.32 409.35 C 181.03 398.92 194.00 388.79 206.50 378.11 C 201.58 377.30 196.67 376.43 191.71 375.93 C 212.95 366.25 234.38 356.99 255.63 347.31 C 223.45 380.70 191.27 414.10 159.21 447.61 C 177.82 450.55 196.41 453.63 215.01 456.66 C 240.98 425.70 266.87 394.67 292.80 363.67 C 288.55 363.70 284.30 363.93 280.06 364.17 Z" />
<path fill="#1a59c3" opacity="1.00" d=" M 446.46 341.95 C 446.78 338.28 446.93 334.51 448.31 331.05 C 449.92 336.17 449.97 341.59 450.40 346.90 C 451.78 370.24 452.11 393.62 452.38 417.00 C 452.64 456.35 452.56 495.74 450.69 535.06 C 450.05 542.04 450.46 549.28 448.18 556.00 C 445.80 546.88 446.13 537.32 445.46 527.97 C 443.58 477.35 443.64 426.66 444.86 376.02 C 445.20 364.66 445.59 353.29 446.46 341.95 Z" />
<path fill="#1a59c3" opacity="1.00" d=" M 739.55 369.73 C 748.87 368.53 758.86 368.51 767.56 372.51 C 773.65 375.24 777.58 381.48 778.18 388.03 C 779.28 396.31 777.69 406.29 770.15 411.17 C 761.82 416.43 751.41 416.54 741.91 415.74 C 734.08 414.99 725.35 411.89 721.82 404.27 C 718.66 396.97 718.64 388.21 721.82 380.92 C 724.94 374.06 732.49 370.77 739.55 369.73 M 739.47 381.72 C 736.57 382.28 733.64 384.06 732.80 387.05 C 731.72 390.57 731.72 394.46 732.78 397.98 C 733.70 401.22 736.93 403.08 740.09 403.55 C 745.39 404.36 750.82 404.29 756.16 403.81 C 759.53 403.50 763.34 402.23 764.84 398.90 C 766.31 395.31 766.21 391.18 765.33 387.46 C 764.48 384.02 761.10 382.03 757.79 381.58 C 751.73 380.75 745.50 380.70 739.47 381.72 Z" />
<path fill="#1a59c3" opacity="1.00" d=" M 599.67 381.75 C 602.41 377.73 605.22 373.75 608.01 369.75 C 616.34 369.76 624.68 369.72 633.01 369.76 C 637.75 369.79 642.66 370.70 646.58 373.50 C 654.14 378.71 655.23 390.63 649.47 397.55 C 645.65 401.90 639.66 403.67 634.02 403.73 C 626.76 403.79 619.50 403.72 612.25 403.75 C 612.25 407.62 612.25 411.50 612.25 415.37 C 608.08 415.38 603.91 415.38 599.75 415.37 C 599.75 407.58 599.75 399.79 599.75 392.00 C 611.54 391.95 623.33 392.10 635.12 391.94 C 637.83 392.02 640.52 389.88 640.45 387.04 C 640.77 384.04 637.91 381.66 635.06 381.80 C 623.26 381.66 611.46 381.80 599.67 381.75 Z" />
<path fill="#1a59c3" opacity="1.00" d=" M 667.29 369.75 C 675.87 369.76 684.44 369.71 693.02 369.77 C 698.93 369.87 705.39 370.89 709.78 375.22 C 717.34 382.61 714.38 397.82 703.75 400.67 C 708.35 405.28 712.37 410.40 716.57 415.37 C 710.95 415.38 705.33 415.36 699.71 415.39 C 696.71 411.39 693.73 407.38 690.75 403.38 C 684.41 403.38 678.08 403.37 671.75 403.38 C 671.75 407.38 671.75 411.38 671.74 415.38 C 667.53 415.37 663.33 415.38 659.12 415.37 C 659.12 407.58 659.12 399.79 659.12 392.00 C 671.11 391.93 683.11 392.12 695.11 391.93 C 698.19 391.95 701.72 389.46 700.94 386.03 C 700.57 382.71 696.84 381.61 694.00 381.75 C 682.36 381.73 670.71 381.76 659.06 381.75 C 661.79 377.74 664.54 373.75 667.29 369.75 Z" />
<path fill="#1a59c3" opacity="1.00" d=" M 809.12 369.75 C 813.37 369.75 817.62 369.75 821.87 369.75 C 821.85 377.84 821.91 385.93 821.85 394.03 C 821.85 399.09 820.90 404.51 817.40 408.40 C 813.07 413.29 806.26 414.88 799.99 415.26 C 793.80 415.53 787.61 415.31 781.43 415.37 C 784.16 411.41 786.92 407.46 789.66 403.50 C 794.86 403.29 800.33 404.22 805.29 402.21 C 808.08 401.05 809.25 397.89 809.11 395.04 C 809.16 386.61 809.10 378.18 809.12 369.75 Z" />
<path fill="#1a59c3" opacity="1.00" d=" M 828.63 369.75 C 844.25 369.75 859.87 369.73 875.49 369.76 C 872.80 373.75 870.05 377.70 867.40 381.71 C 858.68 381.80 849.96 381.72 841.25 381.75 C 841.24 383.49 841.24 385.24 841.25 386.99 C 851.92 387.01 862.59 386.99 873.26 387.01 C 870.64 390.39 868.72 394.49 865.64 397.40 C 857.53 397.67 849.39 397.42 841.27 397.49 C 841.25 399.48 841.23 401.47 841.22 403.47 C 852.68 403.54 864.15 403.46 875.62 403.51 C 872.94 407.46 870.20 411.37 867.56 415.34 C 854.58 415.42 841.60 415.36 828.63 415.37 C 828.62 400.17 828.62 384.96 828.63 369.75 Z" />
<path fill="#1a59c3" opacity="1.00" d=" M 880.79 381.82 C 884.51 374.32 892.84 370.07 901.01 369.84 C 911.03 369.61 921.06 369.82 931.08 369.75 C 928.35 373.75 925.67 377.78 922.92 381.76 C 916.29 381.76 909.66 381.72 903.04 381.75 C 899.77 381.70 896.39 382.70 894.07 385.08 C 890.05 388.98 889.88 396.17 893.87 400.15 C 896.23 402.56 899.69 403.58 903.01 403.51 C 912.36 403.49 921.71 403.49 931.07 403.50 C 928.37 407.46 925.66 411.42 922.95 415.38 C 915.98 415.34 909.01 415.43 902.05 415.35 C 895.41 415.27 888.73 412.63 884.24 407.67 C 877.95 400.85 876.56 390.06 880.79 381.82 Z" />
<path fill="#1a59c3" opacity="1.00" d=" M 939.44 369.76 C 954.75 369.74 970.05 369.74 985.36 369.76 C 982.69 373.73 979.92 377.64 977.34 381.67 C 972.51 381.81 967.69 381.73 962.88 381.75 C 962.87 392.96 962.88 404.17 962.87 415.37 C 958.66 415.38 954.45 415.38 950.25 415.37 C 950.25 404.16 950.25 392.96 950.25 381.75 C 943.92 381.74 937.60 381.75 931.28 381.75 C 934.00 377.75 936.74 373.77 939.44 369.76 Z" />
</g>
<g id="#478061ff">
<path fill="#478061" opacity="1.00" d=" M 332.34 324.43 C 355.88 338.89 375.54 359.99 387.12 385.17 C 402.15 417.19 402.93 455.49 389.20 488.09 C 373.93 525.10 341.54 553.89 303.99 567.07 C 312.50 533.28 321.02 499.48 329.48 465.69 C 331.78 470.34 339.81 470.71 341.37 465.35 C 342.38 458.62 341.20 451.76 341.32 444.98 C 340.74 431.01 340.72 417.02 340.17 403.04 C 339.99 399.39 340.55 395.64 339.58 392.07 C 337.79 387.59 330.55 386.79 327.99 390.94 C 312.52 430.56 296.99 470.19 281.56 509.84 C 274.05 498.95 265.74 488.62 258.18 477.77 L 258.17 477.10 C 272.67 446.17 287.54 415.40 302.03 384.46 C 304.47 386.93 308.62 387.72 311.54 385.63 C 313.11 384.59 313.48 382.65 313.99 380.98 C 319.83 362.04 326.41 343.33 332.34 324.43 Z" />
<path fill="#478061" opacity="1.00" d=" M 997.22 446.19 C 1000.93 440.53 1009.08 439.01 1015.00 441.84 C 1018.38 443.70 1020.91 446.70 1023.73 449.28 C 1040.07 464.86 1056.39 480.47 1072.76 496.03 C 1072.74 478.02 1072.75 460.01 1072.75 442.00 C 1080.96 442.00 1089.16 442.00 1097.38 442.00 C 1097.37 467.33 1097.39 492.65 1097.37 517.97 C 1097.44 523.76 1095.71 530.25 1090.61 533.60 C 1085.27 536.85 1077.59 536.63 1073.01 532.10 C 1054.88 514.82 1036.76 497.51 1018.62 480.23 C 1018.63 498.23 1018.61 516.23 1018.63 534.23 C 1010.46 534.27 1002.29 534.24 994.12 534.25 C 994.12 509.16 994.13 484.07 994.11 458.98 C 994.07 454.56 994.65 449.92 997.22 446.19 Z" />
<path fill="#478061" opacity="1.00" d=" M 477.36 442.09 C 510.32 441.89 543.28 442.05 576.23 442.00 C 570.42 450.05 564.59 458.08 558.77 466.12 C 548.47 466.13 538.17 466.12 527.88 466.13 C 527.87 488.83 527.88 511.54 527.87 534.25 C 518.87 534.25 509.88 534.25 500.88 534.25 C 500.87 511.54 500.88 488.83 500.87 466.12 C 487.26 466.12 473.65 466.13 460.04 466.12 C 465.80 458.10 471.71 450.18 477.36 442.09 Z" />
<path fill="#478061" opacity="1.00" d=" M 601.36 442.04 C 617.90 441.95 634.44 442.02 650.98 442.00 C 662.10 441.84 673.68 442.25 683.93 447.02 C 691.82 450.62 698.71 457.38 700.85 465.97 C 703.38 476.28 701.49 488.18 694.02 496.07 C 690.18 500.30 684.92 502.90 679.45 504.28 C 689.62 513.44 698.22 524.14 707.42 534.24 C 695.37 534.25 683.32 534.26 671.27 534.24 C 664.85 526.11 658.41 518.00 651.99 509.88 C 638.28 509.87 624.58 509.87 610.88 509.88 C 610.87 518.00 610.88 526.12 610.87 534.25 C 601.91 534.25 592.96 534.25 584.00 534.25 C 584.00 518.50 584.00 502.75 584.00 487.00 C 608.99 487.01 633.98 486.98 658.97 487.01 C 663.30 487.07 667.90 486.15 671.26 483.24 C 675.42 479.74 675.02 472.43 670.79 469.16 C 667.77 466.79 663.79 466.15 660.06 466.12 C 634.65 466.12 609.24 466.14 583.84 466.11 C 589.65 458.07 595.58 450.10 601.36 442.04 Z" />
<path fill="#478061" opacity="1.00" d=" M 717.12 442.00 C 726.12 442.00 735.12 442.00 744.12 442.00 C 744.12 472.75 744.13 503.50 744.12 534.25 C 735.12 534.25 726.12 534.25 717.12 534.25 C 717.12 503.50 717.13 472.75 717.12 442.00 Z" />
<path fill="#478061" opacity="1.00" d=" M 760.64 466.11 C 766.35 458.06 772.09 450.03 777.83 442.00 C 791.90 442.01 805.96 441.99 820.03 442.00 C 833.07 442.10 846.44 445.99 856.45 454.59 C 865.79 462.54 871.32 474.71 871.15 486.98 C 871.41 499.35 866.13 511.66 857.10 520.10 C 847.20 529.47 833.46 534.16 819.96 534.25 C 800.23 534.25 780.49 534.25 760.75 534.25 C 760.75 515.08 760.75 495.92 760.75 476.75 C 769.79 476.75 778.83 476.75 787.87 476.75 C 787.88 488.00 787.87 499.25 787.88 510.49 C 798.25 510.48 808.63 510.54 819.00 510.47 C 826.43 510.41 834.29 508.07 839.30 502.32 C 845.14 495.88 846.11 485.71 841.81 478.20 C 838.72 472.65 833.04 468.93 827.03 467.19 C 822.50 465.79 817.70 466.15 813.03 466.12 C 795.56 466.12 778.10 466.14 760.64 466.11 Z" />
<path fill="#478061" opacity="1.00" d=" M 884.62 442.00 C 918.18 442.00 951.73 442.00 985.29 442.00 C 979.47 450.05 973.64 458.09 967.81 466.13 C 949.12 466.12 930.44 466.12 911.75 466.13 C 911.74 469.75 911.74 473.37 911.75 477.00 C 934.66 477.01 957.57 476.98 980.48 477.01 C 975.33 484.01 970.17 491.00 965.02 498.00 C 947.26 498.00 929.51 498.00 911.75 498.00 C 911.74 502.16 911.74 506.33 911.75 510.49 C 936.33 510.48 960.91 510.53 985.49 510.47 C 979.80 518.45 973.99 526.34 968.23 534.26 C 940.36 534.24 912.49 534.26 884.63 534.25 C 884.62 503.50 884.62 472.75 884.62 442.00 Z" />
<path fill="#478061" opacity="1.00" d=" M 1122.20 442.00 C 1155.11 442.03 1188.02 441.93 1220.93 442.06 C 1215.25 449.70 1209.79 457.51 1204.11 465.15 C 1203.28 466.63 1201.40 465.96 1200.08 466.15 C 1190.88 466.10 1181.69 466.14 1172.50 466.12 C 1172.49 488.83 1172.51 511.54 1172.49 534.25 C 1163.49 534.25 1154.50 534.25 1145.51 534.25 C 1145.48 511.54 1145.51 488.83 1145.50 466.12 C 1131.91 466.12 1118.32 466.14 1104.74 466.11 C 1110.55 458.07 1116.38 450.04 1122.20 442.00 Z" />
<path fill="#478061" opacity="1.00" d=" M 103.70 467.61 C 111.88 469.12 120.00 470.94 128.09 472.83 C 148.07 476.61 167.93 481.04 187.86 485.11 C 187.44 489.58 186.84 494.04 186.31 498.50 C 186.08 501.30 183.88 503.30 182.54 505.61 C 176.13 516.13 169.69 526.62 162.91 536.90 C 160.83 540.12 158.67 543.31 157.06 546.81 C 130.80 527.69 110.98 499.42 103.70 467.61 Z" />
<path fill="#478061" opacity="1.00" d=" M 224.59 521.57 C 228.38 519.21 232.11 516.75 236.01 514.58 C 243.95 523.50 250.91 533.24 258.73 542.26 C 266.94 552.54 275.30 562.71 283.51 573.00 C 253.98 579.17 222.73 577.17 194.39 566.75 C 202.77 553.11 212.13 540.10 220.46 526.43 C 221.57 524.61 222.69 522.67 224.59 521.57 Z" />
</g>
</svg>
