<?xml version="1.0" encoding="UTF-8" ?>
<!DOCTYPE svg PUBLIC "-//W3C//DTD SVG 1.1//EN" "http://www.w3.org/Graphics/SVG/1.1/DTD/svg11.dtd">
<svg width="1302pt" height="900pt" viewBox="0 0 1302 900" version="1.1" xmlns="http://www.w3.org/2000/svg">
<g id="#b3b3b3ff">
<path fill="#b3b3b3" opacity="1.00" d=" M 622.68 247.72 C 651.66 242.90 682.07 245.40 709.46 256.30 C 713.47 257.80 717.29 259.79 721.29 261.32 C 720.41 263.03 718.87 264.19 717.49 265.46 C 703.55 278.16 689.99 291.29 675.93 303.84 C 672.99 307.60 675.36 313.29 679.93 314.28 C 657.52 340.63 635.55 367.36 613.23 393.79 C 599.93 391.56 586.62 389.49 573.31 387.46 C 601.39 357.82 629.94 328.62 658.11 299.06 C 660.33 296.75 663.64 294.58 663.09 290.88 C 662.94 286.60 657.88 283.89 654.10 285.57 C 632.72 295.04 611.36 304.54 590.00 314.05 C 586.22 315.48 585.48 321.12 588.15 323.91 C 589.21 325.21 590.91 325.63 592.40 326.25 C 575.17 340.01 558.26 354.14 541.00 367.85 C 536.95 371.23 533.19 375.00 528.65 377.75 C 520.17 385.23 511.13 392.09 502.42 399.33 C 498.72 371.04 504.72 341.60 519.42 317.12 C 541.20 280.05 580.58 254.85 622.68 247.72 Z" />
</g>
<g id="#1a59c3ff">
<path fill="#1a59c3" opacity="1.00" d=" M 681.04 308.17 C 696.62 293.80 712.16 279.38 727.57 264.83 C 721.39 284.82 714.58 304.62 708.23 324.56 C 706.55 320.81 705.01 317.00 703.06 313.38 C 685.78 349.60 668.65 385.89 651.41 422.13 C 662.42 437.04 673.47 451.93 684.35 466.94 C 701.23 424.32 717.64 381.51 734.52 338.88 C 735.17 361.56 735.62 384.24 736.36 406.91 C 733.56 402.87 730.62 398.93 727.64 395.03 C 717.58 433.92 708.01 472.94 698.10 511.87 C 697.78 514.97 693.88 514.56 691.74 515.61 C 673.78 493.93 656.38 471.78 638.49 450.04 C 632.46 453.86 626.37 457.56 620.31 461.32 C 618.16 462.55 617.26 464.98 615.95 466.94 C 607.14 480.88 598.05 494.63 589.11 508.48 C 579.99 504.83 571.36 500.05 563.17 494.65 C 572.95 478.48 583.30 462.63 593.25 446.58 C 594.39 439.17 594.98 431.67 595.92 424.22 C 565.72 417.87 535.51 411.59 505.28 405.37 C 536.04 380.41 566.78 355.42 597.53 330.44 C 600.82 327.64 604.40 325.17 607.45 322.09 C 602.54 321.33 597.65 320.40 592.71 319.94 C 613.94 310.24 635.39 300.99 656.64 291.31 C 624.46 324.71 592.24 358.08 560.22 391.63 C 578.84 394.53 597.42 397.64 616.02 400.66 C 641.97 369.70 667.87 338.70 693.77 307.70 C 689.52 307.68 685.28 307.94 681.04 308.17 Z" />
<path fill="#1a59c3" opacity="1.00" d=" M 369.43 503.68 C 375.12 502.64 381.39 502.62 386.64 505.35 C 390.67 507.43 392.88 511.83 393.43 516.19 C 394.09 521.49 393.87 527.30 390.97 531.97 C 387.96 536.54 382.18 538.06 377.01 538.19 C 371.41 538.35 364.94 537.45 361.24 532.76 C 357.05 526.86 357.15 518.77 359.23 512.10 C 360.73 507.64 364.92 504.58 369.43 503.68 M 369.44 512.71 C 365.95 513.77 365.36 517.88 365.51 521.01 C 365.44 523.88 366.23 527.50 369.33 528.50 C 373.39 529.60 377.79 529.52 381.88 528.63 C 385.21 527.78 386.21 524.01 386.15 520.99 C 386.23 517.93 385.70 513.85 382.30 512.74 C 378.14 511.60 373.61 511.62 369.44 512.71 Z" />
<path fill="#1a59c3" opacity="1.00" d=" M 290.14 503.59 C 296.39 503.76 302.71 503.13 308.93 503.98 C 320.22 506.39 320.64 525.58 309.45 528.46 C 303.95 529.39 298.31 528.68 292.76 528.90 C 292.75 531.82 292.74 534.75 292.75 537.68 C 290.22 537.67 287.70 537.67 285.17 537.68 C 285.17 531.86 285.18 526.03 285.17 520.21 C 292.46 520.16 299.76 520.38 307.05 520.12 C 310.87 519.62 310.85 512.91 306.95 512.63 C 299.66 512.38 292.37 512.61 285.08 512.54 C 286.76 509.55 288.46 506.58 290.14 503.59 Z" />
<path fill="#1a59c3" opacity="1.00" d=" M 326.17 503.58 C 332.11 503.66 338.07 503.36 344.01 503.74 C 348.38 503.95 352.56 506.83 353.89 511.08 C 355.57 516.68 354.24 524.15 348.37 526.73 C 351.18 530.21 353.61 533.97 356.13 537.67 C 352.68 537.68 349.22 537.71 345.77 537.61 C 344.05 534.59 342.23 531.62 340.39 528.68 C 336.54 528.72 332.70 528.71 328.86 528.71 C 328.86 531.70 328.86 534.69 328.86 537.68 C 326.31 537.67 323.76 537.67 321.22 537.68 C 321.21 531.86 321.22 526.04 321.21 520.22 C 328.76 520.12 336.33 520.45 343.87 520.07 C 347.42 519.34 347.69 513.61 344.15 512.71 C 336.50 512.28 328.81 512.66 321.15 512.53 C 322.84 509.56 324.51 506.58 326.17 503.58 Z" />
<path fill="#1a59c3" opacity="1.00" d=" M 412.10 524.93 C 412.65 517.83 412.15 510.68 412.34 503.56 C 414.93 503.57 417.53 503.57 420.12 503.58 C 420.04 510.37 420.29 517.17 420.00 523.96 C 419.83 528.54 417.95 533.52 413.66 535.72 C 408.09 538.68 401.54 537.38 395.51 537.68 C 397.19 534.69 398.86 531.70 400.59 528.75 C 404.48 528.61 410.73 529.92 412.10 524.93 Z" />
<path fill="#1a59c3" opacity="1.00" d=" M 424.18 503.58 C 433.68 503.56 443.18 503.57 452.68 503.58 C 451.01 506.56 449.36 509.55 447.69 512.54 C 442.41 512.53 437.13 512.53 431.85 512.54 C 431.85 513.51 431.84 515.45 431.84 516.42 C 438.35 516.43 444.85 516.44 451.36 516.42 C 449.88 519.04 448.39 521.66 446.92 524.29 C 441.89 524.32 436.86 524.29 431.84 524.31 C 431.84 525.79 431.84 527.27 431.85 528.77 C 438.82 528.77 445.80 528.75 452.78 528.77 C 451.11 531.73 449.46 534.70 447.81 537.67 C 439.93 537.68 432.06 537.67 424.19 537.68 C 424.18 526.31 424.21 514.95 424.18 503.58 Z" />
<path fill="#1a59c3" opacity="1.00" d=" M 456.08 512.12 C 458.12 507.38 462.82 503.82 468.05 503.67 C 474.17 503.43 480.30 503.64 486.42 503.57 C 484.78 506.56 483.15 509.55 481.50 512.53 C 477.03 512.62 472.55 512.34 468.09 512.65 C 460.53 513.78 459.92 526.41 467.15 528.52 C 473.55 529.11 480.02 528.58 486.45 528.78 C 484.79 531.73 483.14 534.69 481.52 537.66 C 474.91 537.15 467.49 539.24 461.59 535.36 C 454.35 530.37 452.71 519.86 456.08 512.12 Z" />
<path fill="#1a59c3" opacity="1.00" d=" M 486.55 512.52 C 488.22 509.53 489.87 506.52 491.57 503.55 C 500.85 503.60 510.12 503.56 519.40 503.57 C 517.76 506.57 516.11 509.55 514.45 512.54 C 511.55 512.53 508.65 512.53 505.76 512.53 C 505.76 520.91 505.76 529.30 505.76 537.68 C 503.21 537.67 500.67 537.67 498.13 537.69 C 498.11 529.30 498.13 520.92 498.12 512.54 C 494.26 512.53 490.41 512.53 486.55 512.52 Z" />
</g>
<g id="#478061ff">
<path fill="#478061" opacity="1.00" d=" M 714.06 327.90 C 720.22 307.98 727.04 288.27 733.38 268.42 C 762.05 286.03 784.91 313.69 794.56 346.12 C 804.46 378.50 800.65 414.70 784.35 444.35 C 767.49 475.49 738.29 499.38 704.99 511.04 C 713.53 477.23 722.02 443.39 730.52 409.58 C 732.32 413.34 737.65 414.58 740.84 411.83 C 743.51 409.31 742.59 405.28 742.72 402.01 C 742.01 383.01 741.70 364.01 741.14 345.00 C 741.04 342.01 741.47 338.93 740.57 336.04 C 738.74 331.57 731.55 330.81 728.96 334.95 C 713.53 374.60 697.99 414.23 682.52 453.87 C 675.02 442.71 666.38 432.35 658.87 421.21 C 664.96 409.68 669.97 397.60 675.79 385.94 C 684.99 366.81 693.99 347.59 703.05 328.40 C 705.82 331.63 711.84 331.82 714.06 327.90 Z" />
<path fill="#478061" opacity="1.00" d=" M 504.71 411.64 C 512.89 413.11 521.01 414.94 529.10 416.84 C 549.08 420.60 568.92 425.06 588.85 429.10 C 588.50 433.58 587.79 438.01 587.32 442.48 C 587.21 445.06 585.20 446.90 583.93 448.98 C 577.28 459.90 570.58 470.80 563.54 481.47 C 561.62 484.52 559.51 487.48 558.09 490.82 C 531.82 471.72 511.99 443.45 504.71 411.64 Z" />
<path fill="#478061" opacity="1.00" d=" M 625.58 465.57 C 629.40 463.27 633.06 460.70 637.01 458.61 C 642.91 465.16 648.19 472.25 653.77 479.08 C 664.09 491.64 674.32 504.30 684.49 516.99 C 654.98 523.19 623.73 521.16 595.40 510.75 C 603.64 497.30 612.85 484.47 621.11 471.02 C 622.35 469.03 623.44 466.76 625.58 465.57 Z" />
<path fill="#478061" opacity="1.00" d=" M 808.53 562.56 C 813.70 557.17 823.33 557.05 828.59 562.41 C 846.68 579.57 864.66 596.85 882.75 614.02 C 882.75 596.01 882.75 578.01 882.75 560.00 C 890.96 559.99 899.16 560.00 907.37 560.00 C 907.38 585.00 907.37 610.01 907.38 635.01 C 907.40 639.34 906.89 643.88 904.48 647.61 C 900.17 654.82 888.83 655.90 882.95 650.05 C 864.84 632.80 846.78 615.49 828.63 598.28 C 828.59 616.27 828.67 634.27 828.59 652.26 C 820.43 652.23 812.28 652.26 804.12 652.24 C 804.13 626.82 804.11 601.39 804.13 575.96 C 804.10 571.20 805.19 566.14 808.53 562.56 Z" />
<path fill="#478061" opacity="1.00" d=" M 287.32 560.12 C 320.28 559.85 353.25 560.07 386.22 560.01 C 380.43 568.06 374.58 576.07 368.78 584.11 C 358.48 584.14 348.18 584.11 337.88 584.13 C 337.87 606.83 337.88 629.54 337.88 652.24 C 328.88 652.26 319.88 652.25 310.88 652.25 C 310.86 629.54 310.88 606.83 310.87 584.12 C 297.26 584.12 283.65 584.13 270.04 584.12 C 275.78 576.11 281.71 568.22 287.32 560.12 Z" />
<path fill="#478061" opacity="1.00" d=" M 411.36 560.04 C 429.58 559.95 447.80 560.04 466.02 559.99 C 476.46 560.04 487.36 561.19 496.62 566.40 C 503.60 570.32 509.44 576.94 511.08 584.93 C 513.19 594.76 511.38 605.87 504.53 613.52 C 500.63 618.01 495.18 620.89 489.45 622.27 C 499.59 631.45 508.23 642.12 517.40 652.24 C 505.36 652.26 493.32 652.25 481.28 652.24 C 474.84 644.12 468.42 636.00 461.98 627.88 C 448.28 627.87 434.58 627.87 420.88 627.88 C 420.87 636.00 420.88 644.12 420.87 652.25 C 411.92 652.25 402.96 652.25 394.00 652.25 C 394.00 636.50 394.00 620.75 394.00 605.00 C 419.01 605.01 444.03 604.98 469.04 605.01 C 473.33 605.07 477.87 604.13 481.21 601.28 C 485.41 597.80 485.04 590.48 480.82 587.18 C 477.80 584.80 473.81 584.14 470.06 584.12 C 444.66 584.12 419.25 584.14 393.85 584.11 C 399.65 576.06 405.58 568.10 411.36 560.04 Z" />
<path fill="#478061" opacity="1.00" d=" M 527.12 560.01 C 536.12 559.99 545.12 560.00 554.12 560.00 C 554.12 590.75 554.13 621.50 554.12 652.25 C 545.12 652.25 536.12 652.25 527.12 652.24 C 527.12 621.50 527.13 590.75 527.12 560.01 Z" />
<path fill="#478061" opacity="1.00" d=" M 570.66 584.10 C 576.35 576.04 582.10 568.02 587.84 560.00 C 601.90 560.00 615.97 559.99 630.03 560.00 C 642.83 560.10 655.95 563.85 665.90 572.13 C 675.30 579.86 681.05 591.83 681.14 604.02 C 681.61 615.99 676.97 628.02 668.62 636.59 C 660.60 644.96 649.50 650.00 638.11 651.63 C 632.76 652.45 627.35 652.23 621.97 652.25 C 604.89 652.25 587.82 652.26 570.75 652.25 C 570.75 633.08 570.75 613.92 570.75 594.75 C 579.79 594.75 588.83 594.74 597.87 594.75 C 597.88 606.00 597.87 617.25 597.88 628.49 C 608.23 628.48 618.59 628.53 628.95 628.47 C 636.63 628.43 644.81 625.90 649.79 619.74 C 655.70 612.74 656.03 601.77 650.65 594.37 C 645.74 587.62 637.22 584.01 628.99 584.12 C 609.54 584.12 590.10 584.15 570.66 584.10 Z" />
<path fill="#478061" opacity="1.00" d=" M 694.63 560.00 C 728.18 560.00 761.72 559.99 795.27 560.01 C 789.47 568.06 783.64 576.09 777.81 584.12 C 759.12 584.13 740.44 584.12 721.75 584.13 C 721.74 587.75 721.74 591.37 721.75 595.00 C 744.66 595.02 767.56 594.97 790.46 595.02 C 785.33 602.03 780.17 609.01 775.01 616.00 C 757.26 616.00 739.50 616.00 721.75 616.00 C 721.74 620.16 721.74 624.33 721.75 628.49 C 746.31 628.51 770.86 628.48 795.42 628.51 C 789.81 636.51 783.97 644.35 778.23 652.26 C 750.36 652.24 722.49 652.26 694.63 652.25 C 694.61 621.50 694.62 590.75 694.63 560.00 Z" />
<path fill="#478061" opacity="1.00" d=" M 932.20 560.01 C 965.11 560.00 998.01 559.99 1030.92 560.01 C 1024.92 567.95 1019.50 576.44 1013.15 584.05 C 1002.94 584.24 992.72 584.07 982.51 584.12 C 982.48 606.83 982.52 629.54 982.49 652.25 C 973.50 652.25 964.50 652.25 955.51 652.25 C 955.48 629.54 955.52 606.83 955.49 584.12 C 941.91 584.12 928.33 584.14 914.76 584.11 C 920.54 576.05 926.39 568.04 932.20 560.01 Z" />
</g>
</svg>
