<?xml version="1.0" encoding="UTF-8" standalone="no"?>
<!-- Created with Inkscape (http://www.inkscape.org/) -->

<svg
   xmlns:dc="http://purl.org/dc/elements/1.1/"
   xmlns:cc="http://creativecommons.org/ns#"
   xmlns:rdf="http://www.w3.org/1999/02/22-rdf-syntax-ns#"
   xmlns:svg="http://www.w3.org/2000/svg"
   xmlns="http://www.w3.org/2000/svg"
   xmlns:sodipodi="http://sodipodi.sourceforge.net/DTD/sodipodi-0.dtd"
   xmlns:inkscape="http://www.inkscape.org/namespaces/inkscape"
   width="107.83808mm"
   height="18.110199mm"
   viewBox="0 0 107.83808 18.110199"
   version="1.1"
   id="svg8"
   sodipodi:docname="PROJECT-lightgrey.svg"
   inkscape:version="0.92.3 (2405546, 2018-03-11)">
  <defs
     id="defs2" />
  <sodipodi:namedview
     id="base"
     pagecolor="#ffffff"
     bordercolor="#666666"
     borderopacity="1.0"
     inkscape:pageopacity="0.0"
     inkscape:pageshadow="2"
     inkscape:zoom="1.979899"
     inkscape:cx="193.46164"
     inkscape:cy="-14.851477"
     inkscape:document-units="mm"
     inkscape:current-layer="layer1"
     showgrid="false"
     height="100mm"
     inkscape:window-width="1366"
     inkscape:window-height="705"
     inkscape:window-x="-8"
     inkscape:window-y="-8"
     inkscape:window-maximized="1"
     fit-margin-top="0"
     fit-margin-left="0"
     fit-margin-right="0"
     fit-margin-bottom="0" />
  <metadata
     id="metadata5">
    <rdf:RDF>
      <cc:Work
         rdf:about="">
        <dc:format>image/svg+xml</dc:format>
        <dc:type
           rdf:resource="http://purl.org/dc/dcmitype/StillImage" />
        <dc:title></dc:title>
      </cc:Work>
    </rdf:RDF>
  </metadata>
  <g
     inkscape:label="Layer 1"
     inkscape:groupmode="layer"
     id="layer1"
     transform="translate(-8.4464687,-121.91312)">
    <text
       xml:space="preserve"
       style="font-style:normal;font-variant:normal;font-weight:normal;font-stretch:normal;font-size:25.39999962px;line-height:1.25;font-family:Trident;-inkscape-font-specification:Trident;letter-spacing:0px;word-spacing:0px;fill:#000000;fill-opacity:1;stroke:none;stroke-width:0.26458332"
       x="23.519718"
       y="140.91458"
       id="text4545"><tspan
         sodipodi:role="line"
         id="tspan4543"
         x="23.519718"
         y="164.40958"
         style="stroke-width:0.26458332"></tspan></text>
    <g
       aria-label="PROJECT"
       style="font-style:normal;font-variant:normal;font-weight:normal;font-stretch:normal;font-size:25.39999962px;line-height:1.25;font-family:Trident;-inkscape-font-specification:Trident;letter-spacing:0px;word-spacing:0px;fill:#000000;fill-opacity:1;stroke:none;stroke-width:0.26458332"
       id="text4564">
      <path
         d="M 14.669469,122.06552 H 8.4464687 v 1.3208 h 6.4008003 c 2.5908,0 4.445,1.6002 4.445,4.1148 0,2.4892 -1.8034,4.1148 -4.445,4.1148 H 9.7672687 v -3.1242 h -1.3208 v 11.3538 h 1.3208 v -6.9088 h 4.9022003 c 3.7592,0 5.969,-2.286 5.969,-5.4356 0,-3.1496 -2.2606,-5.4356 -5.969,-5.4356 z"
         style="stroke-width:0.26458332;fill:#b3b3b3;fill-opacity:1"
         id="path4566" />
      <path
         d="m 24.17264,128.46632 h 1.3208 z m 12.7,11.3792 -4.1148,-7.239 c 2.3114,-0.7366 3.6068,-2.667 3.6068,-5.1054 0,-3.1496 -2.1844,-5.4356 -5.8928,-5.4356 h -6.2992 v 1.3208 h 6.4008 c 2.5908,0 4.445,1.6002 4.445,4.1148 0,2.4892 -1.8034,4.1148 -4.445,4.1148 h -5.08 v -3.1496 h -1.3208 v 11.3792 h 1.3462 v -6.9088 h 4.953 c 0.3302,0 0.635,-0.0254 0.9398,-0.0508 l 3.937,6.9596 z"
         style="stroke-width:0.26458332;fill:#b3b3b3;fill-opacity:1"
         id="path4568" />
      <path
         d="m 48.026812,121.91312 c -5.0546,0 -8.636,4.0132 -8.636,9.0424 0,5.0546 3.5814,9.0678 8.636,9.0678 5.0546,0 8.635999,-4.0132 8.635999,-9.0678 0,-5.0292 -3.581399,-9.0424 -8.635999,-9.0424 z m 0,16.7386 c -4.191,0 -7.1628,-3.4798 -7.1628,-7.6962 0,-4.191 2.9718,-7.6708 7.1628,-7.6708 4.191,0 7.162799,3.4798 7.162799,7.6708 0,4.2164 -2.971799,7.6962 -7.162799,7.6962 z"
         style="stroke-width:0.26458332;fill:#b3b3b3;fill-opacity:1"
         id="path4570" />
      <path
         d="m 65.674255,122.06552 v 12.7 c 0,2.7432 -1.1684,3.9116 -2.8956,3.9116 -1.3208,0 -2.6924,-0.6858 -3.556,-2.1844 l -1.015999,1.0922 c 1.320799,1.9812 2.641599,2.4384 4.571999,2.4384 2.4384,0 4.2164,-1.5748 4.2164,-5.3848 v -12.573 z"
         style="stroke-width:0.26458332;fill:#b3b3b3;fill-opacity:1"
         id="path4572" />
      <path
         d="m 81.924698,130.29512 h -7.1882 v 1.3208 h 7.1882 z m -9.5504,8.2296 v -6.9088 -1.3208 -6.9088 h 10.3378 v -1.3208 h -11.6586 v 17.78 h 11.811 v -1.3208 z"
         style="stroke-width:0.26458332;fill:#b3b3b3;fill-opacity:1"
         id="path4574" />
      <path
         d="m 94.560408,138.65172 c -4.191,0 -7.1628,-3.4798 -7.1628,-7.6962 0,-4.191 2.9718,-7.6708 7.1628,-7.6708 2.6162,0 4.8006,1.3462 6.045202,3.4036 l 1.2954,-0.635 c -1.4986,-2.5146 -4.114802,-4.1402 -7.340602,-4.1402 -5.0546,0 -8.636,4.0132 -8.636,9.0424 0,5.0546 3.5814,9.0678 8.636,9.0678 3.2258,0 5.842002,-1.651 7.340602,-4.1402 l -1.2954,-0.635 c -1.244602,2.032 -3.429002,3.4036 -6.045202,3.4036 z"
         style="stroke-width:0.26458332;fill:#b3b3b3;fill-opacity:1"
         id="path4576" />
      <path
         d="m 103.43215,122.06552 v 1.3208 h 12.8524 v -1.3208 z m 5.7658,17.78 h 1.3208 v -12.6492 h -1.3208 z"
         style="stroke-width:0.26458332;fill:#b3b3b3;fill-opacity:1"
         id="path4578" />
    </g>
  </g>
</svg>
