<?xml version="1.0" encoding="UTF-8" standalone="no"?>
<!-- Created with Inkscape (http://www.inkscape.org/) -->

<svg
   xmlns:dc="http://purl.org/dc/elements/1.1/"
   xmlns:cc="http://creativecommons.org/ns#"
   xmlns:rdf="http://www.w3.org/1999/02/22-rdf-syntax-ns#"
   xmlns:svg="http://www.w3.org/2000/svg"
   xmlns="http://www.w3.org/2000/svg"
   xmlns:sodipodi="http://sodipodi.sourceforge.net/DTD/sodipodi-0.dtd"
   xmlns:inkscape="http://www.inkscape.org/namespaces/inkscape"
   width="98.378967mm"
   height="18.110199mm"
   viewBox="0 0 98.378967 18.110199"
   version="1.1"
   id="svg8"
   sodipodi:docname="TRIDENT-blue.svg"
   inkscape:version="0.92.3 (2405546, 2018-03-11)">
  <defs
     id="defs2" />
  <sodipodi:namedview
     id="base"
     pagecolor="#ffffff"
     bordercolor="#666666"
     borderopacity="1.0"
     inkscape:pageopacity="0.0"
     inkscape:pageshadow="2"
     inkscape:zoom="1.979899"
     inkscape:cx="202.93883"
     inkscape:cy="29.594412"
     inkscape:document-units="mm"
     inkscape:current-layer="layer1"
     showgrid="false"
     height="100mm"
     inkscape:window-width="1366"
     inkscape:window-height="705"
     inkscape:window-x="-8"
     inkscape:window-y="-8"
     inkscape:window-maximized="1"
     fit-margin-top="0"
     fit-margin-left="0"
     fit-margin-right="0"
     fit-margin-bottom="0" />
  <metadata
     id="metadata5">
    <rdf:RDF>
      <cc:Work
         rdf:about="">
        <dc:format>image/svg+xml</dc:format>
        <dc:type
           rdf:resource="http://purl.org/dc/dcmitype/StillImage" />
        <dc:title></dc:title>
      </cc:Work>
    </rdf:RDF>
  </metadata>
  <g
     inkscape:label="Layer 1"
     inkscape:groupmode="layer"
     id="layer1"
     transform="translate(-23.799118,-122.98218)">
    <g
       aria-label="TRIDENT"
       style="font-style:normal;font-variant:normal;font-weight:normal;font-stretch:normal;font-size:25.39999962px;line-height:1.25;font-family:Trident;-inkscape-font-specification:Trident;letter-spacing:0px;word-spacing:0px;fill:#000000;fill-opacity:1;stroke:none;stroke-width:0.26458332"
       id="text4545">
      <path
         d="m 23.799118,123.13458 v 1.3208 h 12.8524 v -1.3208 z m 5.7658,17.78 h 1.3208 v -12.6492 h -1.3208 z"
         style="stroke-width:0.26458332;fill:#1a59c3;fill-opacity:1"
         id="path4547" />
      <path
         d="m 38.946249,129.53538 h 1.3208 z m 12.7,11.3792 -4.1148,-7.239 c 2.3114,-0.7366 3.6068,-2.667 3.6068,-5.1054 0,-3.1496 -2.1844,-5.4356 -5.8928,-5.4356 h -6.2992 v 1.3208 h 6.4008 c 2.5908,0 4.445,1.6002 4.445,4.1148 0,2.4892 -1.8034,4.1148 -4.445,4.1148 h -5.08 v -3.1496 h -1.3208 v 11.3792 h 1.3462 v -6.9088 h 4.953 c 0.3302,0 0.635,-0.0254 0.9398,-0.0508 l 3.937,6.9596 z"
         style="stroke-width:0.26458332;fill:#1a59c3;fill-opacity:1"
         id="path4549" />
      <path
         d="m 54.672421,123.13458 v 17.78 h 1.3208 v -17.78 z"
         style="stroke-width:0.26458332;fill:#1a59c3;fill-opacity:1"
         id="path4551" />
      <path
         d="m 65.032844,123.13458 h -4.953 v 1.3208 h 5.2832 c 4.6736,0 7.6708,3.048 7.6708,7.5692 0,4.5212 -2.8702,7.5692 -7.6708,7.5692 h -3.9624 l 0.0254,-10.033 h -1.3208 l -0.0254,11.3538 h 4.953 c 6.0198,0 9.4742,-3.556 9.4742,-8.89 0,-5.334 -3.5306,-8.89 -9.4742,-8.89 z"
         style="stroke-width:0.26458332;fill:#1a59c3;fill-opacity:1"
         id="path4553" />
      <path
         d="m 88.959245,131.36418 h -7.1882 v 1.3208 h 7.1882 z m -9.5504,8.2296 v -6.9088 -1.3208 -6.9088 h 10.3378 v -1.3208 H 78.088046 v 17.78 h 11.810999 v -1.3208 z"
         style="stroke-width:0.26458332;fill:#1a59c3;fill-opacity:1"
         id="path4555" />
      <path
         d="m 105.68436,137.58718 -11.988804,-14.605 -0.2286,0.508 v 17.4244 h 1.3208 v -14.5542 l 12.014204,14.732 0.2032,-0.5334 v -17.4244 h -1.3208 z"
         style="stroke-width:0.26458332;fill:#1a59c3;fill-opacity:1"
         id="path4557" />
      <path
         d="m 109.32568,123.13458 v 1.3208 h 12.8524 v -1.3208 z m 5.7658,17.78 h 1.3208 v -12.6492 h -1.3208 z"
         style="stroke-width:0.26458332;fill:#1a59c3;fill-opacity:1"
         id="path4559" />
    </g>
  </g>
</svg>
